<?xml version="1.0" encoding="utf-8" ?><svg xmlns="http://www.w3.org/2000/svg" xmlns:xlink="http://www.w3.org/1999/xlink" width="1024" height="1024" viewBox="0 0 1024 1024"><path fill="#FEFEF0" d="M395.028 199.269C406.661 155.664 440.711 126.017 486.151 123.208C516.773 121.79 550.237 134.878 569.484 159.192C537.682 137.301 500.603 124.462 462.645 138.614C414.859 156.431 390.998 207.15 404.214 255.708C406.288 263.329 409.697 270.979 412.597 278.353C396.066 259.226 395.761 250.698 392.51 226.115C389.825 202.807 375.683 182.65 353.865 173.495C325.285 161.502 299.551 169.696 272.473 180.449C297.035 160.594 328.505 151.458 358.677 164.216C373.256 170.381 389.108 184.323 395.028 199.269Z"/><path fill="#FEFEF0" d="M584.637 150.457L632.758 132.453L633.738 132.65C634.081 134.156 633.648 135.598 633.314 137.122L598.747 290.588C592.24 319.765 585.588 348.961 580.082 378.566C578.699 392.192 572.152 414.14 577.212 426.8C579.808 433.293 592.96 422.672 596.054 420.204C591.291 387.602 596.812 354.791 615.365 326.583C636.492 294.463 684.308 275.597 718.847 298.21C727.745 304.036 733.356 313.045 735.072 323.633C738.235 343.153 729.13 358.674 718.102 373.937C722.261 386.31 730.477 401.29 738.776 411.607C745.055 419.413 754.741 427.978 763.918 432.124C770.922 435.287 781.867 437.311 789.202 434.281C799.12 430.055 803.442 417.497 799.303 407.781C792.746 389.992 775.072 384.089 761.565 372.961C745.186 359.493 738.889 337.672 746.573 317.712C757.365 289.678 794.114 272.845 822.3 283.509C840.852 290.731 853.471 309.617 845.003 329.233C840.704 339.193 827.418 345.587 817.455 340.416C804.102 333.485 816.904 327.649 814.503 318.432C813.755 316.255 811.285 314.658 809.316 313.924C795.452 308.752 786.827 323.298 791.015 335.624C798.405 357.369 823.967 363.276 841.153 375.59C858.587 388.081 868.129 403.348 865.112 425.338C864.521 429.628 863.226 432.792 861.513 436.772C859.987 440.014 858.333 443.614 856.439 446.643C834.682 481.423 783.95 499.242 745.501 484.356C729.844 478.294 719.57 468.524 709.255 455.768C693.646 477.991 668.511 489.141 641.261 486.353C627.227 484.917 614.63 479.661 605.617 468.479C599.756 471.374 594.202 475.113 588.261 478.003C570.293 486.555 547.192 497.431 527.041 493.918C511.539 491.215 507.908 473.358 511.535 460.534C513.426 453.85 514.931 446.339 516.569 439.507L528.243 390.059L554.436 277.671C558.917 258.57 563.051 239.296 567.927 220.301C556.01 217.956 546.076 214.564 534.023 209.526C515.3 201.699 487.207 178.971 472.593 206.748C465.653 219.936 474.704 232.227 479.27 243.495C485.898 262.051 453.95 294.246 436.18 280.923C386.65 243.785 418.479 159.975 475.317 148.267C519.076 139.253 543.336 162.9 577.283 183.496C578.129 176.729 582.772 157.599 584.637 150.457ZM679.852 332.572C658.422 339.288 650.274 365.458 647.707 385.321L652.778 380.563C658.954 375.104 705.201 335.236 679.852 332.572ZM691.806 395.345C687.908 399.338 682.217 405.046 678.437 408.821C675.38 411.874 659.091 425.749 658.044 427.663C658.966 428.584 658.937 428.572 660.078 429.194C680.375 434.767 697.086 413.367 691.806 395.345Z"/><path fill="#FEFEF0" d="M662.36 165.182C671.368 158.558 685.699 155.904 696.592 155.208C747.726 152.907 782.172 196.782 765.356 245.934C759.365 263.445 748.902 273.373 732.202 280.989C737.915 275.947 740.262 273.467 744.75 267.324C756.665 249.944 761.913 227.596 755.578 207.241C742.701 165.866 700.479 153.556 662.36 165.182Z"/><path fill="#FEFEF0" d="M633.793 196.637C651.731 186.991 674.578 179.146 694.761 177.198C698.064 176.826 703.738 176.941 707.045 177.255C720.171 178.424 731.198 181.912 739.79 192.394C757.334 213.796 750.24 250.164 725.35 262.72C716.762 267.053 706.233 269.333 697.042 265.599C693.738 264.257 691.202 262.913 689.092 259.912C685.2 254.5 683.895 247.968 684.972 241.424C686.031 237.547 686.617 235.957 688.989 232.765C720.512 190.332 640.965 219.094 627.609 224.353C629.128 215.075 631.423 205.732 633.793 196.637Z"/><path fill="#FEFEF0" d="M219.259 688.48C198.038 688.881 177.566 681.704 160.895 668.753C125.204 641.027 110.817 593.065 105.634 549.746C94.4479 456.254 128.685 347.436 185.475 272.937C217.535 230.879 260.979 191.646 314.922 184.689C326.755 182.968 338.876 184.964 350.555 189.413C393.019 205.589 394.521 267.326 353.799 286.054C344.07 290.528 333.653 287.128 327.491 278.047C318.846 265.307 329.232 253.475 324.265 240.146C318.191 224.407 299.997 224.764 286.97 230.689C252.395 246.414 234.881 288.581 220.978 321.602C212.784 341.066 207.218 360.751 201.344 380.886C180.163 455.729 159.349 559.26 190.466 633.868C190.209 623.637 193.161 606.631 195.038 596.359C200.626 565.766 207.539 532.862 216.184 502.989L267.442 502.971C269.483 502.972 270.703 502.756 272.179 503.783C271.124 508.605 268.278 515.92 266.503 520.717C246.236 575.472 233.497 632.062 219.259 688.48Z"/><path fill="#FEFEF0" d="M762.277 271.052C772.353 263.567 787.347 258.344 799.814 257.2C807.845 256.117 817.914 257.866 825.721 260.267C854.903 269.242 872.903 300.657 863.199 330.12C859.602 341.04 852.287 349.287 842.021 354.553C834.755 358.281 820.83 359.301 816.994 350.372C825.299 349.541 825.307 351.11 834.314 348.321C875.322 331.448 847.837 242.311 762.277 271.052Z"/><path fill="#FEFEF0" d="M490.069 323.993C499.678 307.251 511.191 296.246 530.767 292.616C534.859 292.168 538.628 292.749 542.683 293.276C538.951 310.072 534.997 327.173 530.308 343.706C528.598 349.734 526.141 358.763 523.775 364.528C523.068 362.511 522.303 360.156 521.049 358.416C519.663 356.492 517.408 355.662 515.129 355.412C509.269 354.769 503.63 356.73 499.111 360.437C476.311 379.137 467.819 455.404 464.621 484.643C447.815 484.691 427.337 485.107 410.737 484.157C411.53 479.203 412.341 474.831 413.346 469.928C411.262 471.865 409.1 473.76 407.046 475.714C394.128 487.995 369.476 490.862 356.122 477.704C351.673 473.321 349.611 468.572 347.489 462.825C340.259 471.447 333.169 478.879 322.572 483.162C298.232 492.659 269.202 478.663 260.434 454.295C256.072 442.173 255.327 429.98 255.925 417.249C256.915 396.192 262.25 375.58 270.787 356.357C274.689 348.261 278.51 341.392 283.524 333.939C300.791 308.274 339.96 275.757 367.993 306.47C370.68 309.414 371.789 314.746 372.431 318.584C374.417 311.468 376.174 302.288 377.778 294.935C393.803 294.853 409.718 294.785 425.742 294.972C419.905 332.99 410.899 370.438 404.309 408.297C403.535 411.171 403.487 422.282 407.896 422.438C424.421 423.021 428.666 381.412 430.887 371.096L447.174 294.505C462.01 294.117 481.71 294.291 496.448 295.059C494.591 304.676 492.207 314.402 490.069 323.993ZM344.765 347.136C315.326 355.314 304.385 422.654 329.15 418.175C351.404 410.371 363.365 375.999 357.063 354.551C355.296 348.537 350.362 346.832 344.765 347.136Z"/><path fill="#FEFEF0" d="M810.438 495.141C824.271 488.279 835.021 483.151 847.201 473.109C871.377 453.178 883.507 421.998 869.312 392.497C864.126 381.718 857.777 374.95 850.372 366.001C854.94 365.826 859.92 366.11 863.666 368.81C891.677 389.01 892.536 429.03 874.786 456.212C862.959 474.324 843.324 488.98 822.975 493.76C818.753 494.689 814.736 494.919 810.438 495.141Z"/><path fill="#FEFEF0" d="M788.927 593.759C790.332 604.837 790.505 616.397 800.259 623.844C810.051 631.477 827.355 631.534 835.033 620.803C844.928 607.681 829.573 596.562 818.922 591.073C787.475 574.864 780.246 547.841 802.033 519.065C813.534 503.874 834.723 496.145 853.634 494.193C875.49 491.881 899.808 501.43 901.585 526.204C902.798 540.011 892.793 554.186 878.109 553.962C871.071 553.855 863.015 549.815 863.862 541.368C864.167 538.321 868.874 532.226 864.916 529.651C854.888 522.388 842.974 536.105 844.055 546.073C846.085 564.785 874.773 569.742 886.275 582.251C896 592.828 900.508 600.353 900.893 614.267C902.641 677.461 831.692 700.358 780.157 685.449C771.816 683.035 765.26 678.868 758.885 672.789C754.185 685.073 742.877 684.267 731.926 681.199C723.189 678.751 718.012 673.254 713.95 665.274C702.942 677.003 688.552 684.85 672.129 682.746C635.089 678.001 635.012 634.433 639.167 605.972C641.175 591.656 646.552 570.34 652.161 556.986C660.383 537.411 673.13 513.874 693.774 505.536C702.65 501.952 714.426 500.179 723.391 504.124C732.334 508.059 735.45 514.009 738.694 522.368C740.308 515.909 742.218 509.291 743.995 502.855C759.868 503.063 775.991 502.939 791.882 502.956C790.607 509.18 787.45 518.62 786.054 524.23C782.649 537.92 761.545 613.146 767.578 622.184C775.789 626.484 785.788 599.83 788.927 593.759ZM715.346 551.55C691.493 558.4 677.466 617.755 700.232 616.993C710.935 612.913 715.008 604.904 719.786 595.155C724.363 585.818 734.709 550.891 715.346 551.55Z"/><path fill="#FEFEF0" d="M343.347 667.413C340.496 669.98 337.616 672.412 334.523 674.701C320.285 685.237 297.198 687.715 282.632 676.434C256.662 656.203 258.424 618.346 264.732 589.4C269.807 566.116 279.228 543.101 293.678 524.049C303.154 511.555 315.471 502.733 331.253 500.657C345.419 499.452 359.525 507.196 366.157 519.75C367.997 514.392 369.714 508.455 371.501 502.99C386.79 502.949 402.106 502.856 417.392 503.043C410.415 530.272 404.687 557.989 398.927 585.5C397.532 592.159 392.985 610.361 395.21 616.256C399.32 627.145 411.644 609.493 413.415 604.53C417.832 592.148 419.016 579.062 421.886 566.284C426.616 545.18 431.38 524.051 436.176 502.97L483.86 502.96C482.318 507.862 480.93 514.36 479.743 519.465C489.404 516.896 496.303 510.339 502.58 503.044L523.857 502.858C523.555 505.282 523.047 508.05 522.583 510.469C519.576 526.155 518.035 541.781 516.448 557.661L514.137 557.766C501.712 558.381 493.764 561.013 485.296 570.351C467.186 589.866 456.319 655.545 454.249 682.377C437.715 682.117 421.658 682.648 404.964 682.161C405.446 677.617 405.658 672.646 405.944 668.058C401.122 671.878 395.078 677.695 389.481 679.977C372.171 687.037 351.775 686.849 343.347 667.413ZM341.241 550.014C314.505 559.778 307.399 617.851 326.269 617.6C348.85 608.86 362.611 548.357 341.241 550.014Z"/><path fill="#FEFEF0" d="M872.696 564.378C879.313 565.412 885.919 565.653 891.686 561.71C912.344 547.588 911.943 519.885 899.755 500.734C929.528 510.653 919.854 575.409 883.099 570.383C878.329 568.599 876.538 567.685 872.696 564.378Z"/><path fill="#FEFEF0" d="M522.489 563.531C522.725 556.393 523.417 538.266 526.081 532.486C533.812 515.713 552.932 503.36 570.283 501.692C579.948 500.948 590.847 504.419 597.761 511.382C602.149 515.801 603.707 521.244 605.473 527.001C606.607 519.421 608.9 510.382 610.791 502.937L657.551 503.006C654.785 514.065 651.552 525.203 648.691 536.307C640.447 568.3 633.856 599.609 627.234 631.946L616.321 686.797C613.731 699.981 611.794 712.494 607.403 725.334C597.668 753.798 572.756 769.61 542.795 766.133C521.654 763.68 507.512 753.155 494.611 736.755C486.098 725.045 481.768 712.894 484.743 698.456C488.924 675.516 525.05 673.605 526.565 698.376C527.106 707.224 525.248 718.356 537.772 720.582C562.897 725.047 570.451 682.999 574.585 666.336C571.4 669.061 568.371 671.605 564.847 673.841C546.643 685.391 519.867 683.547 508.783 662.999C493.038 633.81 501.405 595.415 508.824 564.931C514.69 563.579 516.466 563.381 522.489 563.531ZM576.611 551.558C552.752 562.605 542.87 620.912 566.571 615.477C577.649 610.042 582.733 600.112 586.804 588.915C590.722 578.139 596.215 549.461 576.611 551.558Z"/><path fill="#FEFEF0" d="M864.947 688.581C895.528 673.713 911.232 646.402 910.711 612.736C910.508 599.646 908.057 592.147 900.074 581.748C908.987 582.876 915.875 590.157 918.013 598.668C927.058 634.686 912.255 675.241 874.895 687.234C871.745 687.848 868.166 688.197 864.947 688.581Z"/><path fill="#FEFEF0" d="M175.307 824.837C175.138 804.684 175.578 784.498 175.423 764.378C175.264 743.663 175.097 723.454 175.491 702.722C192.08 702.538 204.896 702.311 219.305 712.08C252.454 734.553 256.398 779.41 228.617 808.123C210.865 824.205 197.704 824.606 175.307 824.837ZM201.843 733.177C201.578 753.528 202.255 774.452 201.749 794.601C206.54 791.864 208.537 790.434 212.307 786.389C227.117 767.241 221.403 745.91 201.843 733.177Z"/><path fill="#FEFEF0" d="M255.065 824.743L255.424 703.061L313.912 703.2C314.152 711.467 314.07 721.325 313.724 729.51L281.89 729.532L281.984 750.204C292.367 750.25 303.212 750.664 313.662 750.807C313.758 757.506 313.806 763.95 313.689 770.648C303.041 770.677 292.587 770.761 281.936 771.004C282.006 780.207 281.963 789.236 281.845 798.438C283.69 799.534 313.825 799.062 318.452 799.132L318.486 824.477C297.263 824.548 276.321 824.904 255.065 824.743Z"/><path fill="#FEFEF0" d="M353.043 825.127C348.868 806.381 341.931 786.01 336.771 767.386C333.638 756.075 330.329 743.848 327.372 732.475C325.801 726.436 320.114 708.731 319.596 703.992L320.249 703.217C328.22 703.113 337.236 703.512 345.348 703.594L361.548 762.885C363.323 757.469 364.919 750.216 366.464 744.482L377.259 703.985L402.083 703.997C398.097 721.681 394.182 738.695 389.738 756.261C387.472 767.364 383.493 780.994 380.609 791.942C377.972 801.953 374.704 815.548 371.096 824.945C365.12 825.071 359.03 825.069 353.043 825.127Z"/><path fill="#FEFEF0" d="M411.253 825.497C411.007 810.835 411.375 794.894 411.387 780.119L411.198 703.995C430.664 703.988 450.98 703.684 470.38 704.145L470.102 728.72L437.836 728.757C437.946 735.408 437.897 742.074 437.881 748.727C447.896 749.148 459.079 748.943 469.179 748.973L469.275 772.544L437.909 772.542C438.016 780.518 437.953 788.636 437.969 796.625C437.928 797.956 437.72 798.676 438.428 799.751C442.636 800.421 466.073 800.037 471.617 800.035L471.566 825.825C453.275 826.53 429.459 826.137 411.253 825.497Z"/><path fill="#FEFEF0" d="M637.635 825.433C636.95 785.782 637.446 744.27 637.501 704.525L660.998 704.353C666.038 704.32 672.361 703.941 677.258 704.701C711.313 709.989 718.881 753.875 688.554 770.205C680.47 774.558 672.358 773.625 663.62 773.525L663.567 782.009L663.575 824.947L637.635 825.433ZM663.8 729.148L663.655 749.539C668.839 749.497 675.456 750.107 679.498 746.926C683.364 742.002 684.907 736.389 679.03 732.109C674.384 728.726 669.25 729.158 663.8 729.148Z"/><path fill="#FEFEF0" d="M718.107 825.163C718.397 785.091 717.378 744.639 718.204 704.637L777.472 704.699L777.204 728.899C771.168 728.825 749.123 727.671 745.035 730.284C743.067 733.272 742.72 745.12 744.747 747.868C748.381 749.575 771.133 749.03 777.213 749.078L777.088 771.978L743.631 772.545L743.522 794.125C743.493 795.531 743.757 799.265 745.259 799.63C754.389 801.853 768.42 800.705 777.85 800.527L777.839 825.463C759.237 825.581 736.518 826.003 718.107 825.163Z"/><path fill="#FEFEF0" d="M787.155 826.08C786.702 804.962 787.067 783.145 786.922 761.972C786.793 743.003 786.436 723.644 786.629 704.725C791.612 704.668 796.798 704.533 801.705 704.603C811.55 704.815 821.159 703.631 830.804 706.202C855.048 712.665 863.642 742.424 849.297 762.09C845.243 767.649 840.583 769.75 834.785 772.921C837.451 780.551 841.78 788.109 845.389 795.36C850.438 805.5 855.61 815.62 860.147 826.003C851.959 826.116 843.579 826.009 835.375 825.992L833.605 825.729C830.67 822.659 829.328 818.592 827.171 815.13C821.068 805.335 816.946 791.544 810.891 782.063C811.261 796.79 811.308 811.326 811.278 826.054L787.155 826.08ZM811.453 729.849C811.51 736.745 811.377 744.699 811.671 751.504C818.668 751.582 822.349 752.206 828.133 748.052C831.992 743.352 833.281 737.634 828.021 733.424C822.878 729.307 817.565 729.673 811.453 729.849Z"/><path fill="#FEFEF0" d="M600.714 757.475C607.978 750.175 612.377 741.416 616.221 731.969C625.267 739.731 629.469 763.54 629.054 775.008C628.121 800.769 612.662 826.337 584.15 825.044C572.058 824.496 563.935 819.319 556.054 810.576C548.841 801.527 545.952 793.862 544.802 782.332C550.822 781.616 563.867 781.974 570.408 781.99C572.125 789.838 577.192 799.626 586.737 798.475C604.186 796.371 602.361 769.889 600.714 757.475Z"/><path fill="#FEFEF0" d="M479.882 825.379C479.664 797.243 479.304 762.374 480.569 734.428C482.005 736.15 485.454 741.836 487.191 744.149C493.355 752.356 499 757.631 506.857 763.899C507.043 775.664 506.852 787.702 506.936 799.518C517.011 799.364 527.078 799.159 537.153 799.287L537.088 825.471C520.363 825.574 495.882 826.551 479.882 825.379Z"/><path fill="#FEFEF0" d="M512.229 866.893C511.092 865.099 509.973 863.237 508.679 861.553C505.967 858.024 502.102 855.988 497.668 855.774C488.257 855.32 477.586 859.154 468.673 862.03C452.749 867.167 437.314 873.013 421.797 879.252C408.516 884.592 395.548 890.244 381.717 894.129C361.035 899.94 337.876 902.995 316.495 900.333C304.572 898.849 290.941 894.715 283.429 884.642C281.417 881.945 279.614 878.591 280.185 875.11C284.169 850.812 367.699 863.715 383.27 852.07C384.377 851.242 385.11 850.412 385.337 849.018C383.073 843.622 366.353 846.473 361.701 847.007C355.227 847.75 348.729 848.429 342.237 849.021L251.713 857.109C243.361 857.828 234.957 858.584 226.639 859.268C215.296 860.2 205.026 862.026 194.327 857.062C183.531 852.052 178.603 845.63 174.509 834.785C193.387 835.167 213.353 834.854 232.303 834.861L324.512 835.214C338.793 835.29 387.708 833.776 398.104 837.733C401.659 839.087 404.811 841.319 406.259 844.951C407.533 848.146 407.754 851.723 406.288 854.891C396.6 875.836 333.138 864.797 314.926 872.125C313.457 872.717 312.725 873.267 312.11 874.722L312.721 875.936C317.907 879.793 329.399 879.456 335.524 879.624C368.043 880.514 395.437 874.574 425.081 861.073C445.65 851.704 473.591 847.756 496.187 849.512C504.894 850.189 507.355 852.235 512.645 858.929C513.747 854.471 519.85 851.469 524.101 850.568C551.463 844.768 581.061 853.95 607.01 862.327C615.652 865.117 623.943 868.765 632.747 870.955C644.237 873.61 711.513 883.272 718.166 874.27C717.663 861.935 673.058 868.394 664.284 868.152C654.881 868.215 632.53 866.24 626.201 858.04C604.982 830.545 660.841 835.45 671.688 835.489L727.099 835.622L818.427 835.087C831.654 835.086 847.357 834.718 860.325 835.306C851.383 862.083 830.642 860.701 807.01 859.424C777.074 856.363 746.829 854.152 716.846 851.455C698.033 849.895 679.237 847.165 660.354 846.598C656.46 846.482 645.091 845.895 644.527 850.979C652.314 865.157 714.452 848.78 737.505 864.376C741.534 867.102 744.983 870.982 745.84 875.912C746.514 879.791 745.434 883.769 743.128 886.927C737.383 894.792 725.997 898.056 716.828 899.417C676.096 905.459 636.479 888.635 599.032 875.291C583.194 869.646 567.277 864.53 550.973 860.41C542.834 858.354 532.89 855.224 524.476 856.796C518.46 857.921 515.345 862.087 512.229 866.893Z"/><path fill="#FEFEF0" d="M414.47 845.813C428.113 842.592 434.319 841.054 448.753 840.208C457.437 839.792 462.659 840.098 471.195 840.839C457.265 843.217 443.601 845.693 430.038 849.691L413.902 854.486C414.528 850.881 414.5 849.497 414.47 845.813Z"/><path fill="#FEFEF0" d="M555.369 841.539C559.63 840.748 562.319 840.512 566.671 840.209C581.317 839.321 600.804 842.304 614.996 845.868C615.052 848.757 615.436 852.032 615.7 854.938L608.613 852.449C597.288 848.623 567.233 842.597 555.369 841.539Z"/></svg>